<svg width="56" height="26" viewBox="0 0 56 26" fill="none" xmlns="http://www.w3.org/2000/svg">
<path d="M5.54631 15.3811C5.66948 15.375 5.79024 15.3447 5.90168 15.292C6.01312 15.2392 6.11306 15.1649 6.19575 15.0734C6.27845 14.982 6.34229 14.8751 6.38362 14.7589C6.42494 14.6427 6.44294 14.5195 6.43658 14.3964L6.14887 8.71187L9.39791 11.6492C11.4397 13.4952 13.2576 14.5948 15.7576 15.5948C18.2576 16.4511 20.5664 17.274 24.2819 17.274C24.5165 17.2071 24.7157 17.0515 24.8374 16.8402C24.9591 16.6288 24.9937 16.3784 24.9337 16.142C24.8738 15.9056 24.7241 15.7018 24.5164 15.574C24.3087 15.4462 24.0594 15.4043 23.8214 15.4572C20.7576 15.4511 18.7576 14.9511 16.7576 14.0948C14.7576 13.2384 12.7055 12.1118 10.5955 10.2043L7.4063 7.32101L13.0909 7.03595C13.214 7.02975 13.3347 6.99936 13.4461 6.94651C13.5575 6.89367 13.6573 6.81941 13.74 6.72797C13.8227 6.63653 13.8865 6.5297 13.9279 6.41358C13.9693 6.29747 13.9874 6.17434 13.9812 6.05122C13.975 5.92811 13.9446 5.80742 13.8918 5.69606C13.8389 5.58469 13.7646 5.48482 13.6732 5.40215C13.5818 5.31948 13.4749 5.25563 13.3588 5.21425C13.2427 5.17286 13.1196 5.15476 12.9965 5.16096L5.05159 5.56122C4.92843 5.56727 4.80766 5.59756 4.69622 5.65035C4.58478 5.70314 4.48485 5.7774 4.40215 5.86887C4.31945 5.96035 4.25561 6.06724 4.21429 6.18342C4.17296 6.2996 4.15497 6.4228 4.16133 6.54595L4.56159 14.4908C4.56764 14.614 4.59792 14.7347 4.65072 14.8462C4.70351 14.9576 4.77777 15.0576 4.86924 15.1403C4.96071 15.223 5.0676 15.2868 5.18379 15.3281C5.29997 15.3694 5.42316 15.3874 5.54631 15.3811Z" fill="#EAC28C"/>
<path d="M50.1158 15.0743C49.9925 15.0701 49.8713 15.0416 49.7591 14.9905C49.6469 14.9394 49.5458 14.8667 49.4618 14.7764C49.3777 14.6862 49.3123 14.5803 49.2692 14.4648C49.2261 14.3492 49.2063 14.2263 49.2108 14.1031L49.4128 8.4149L46.2084 11.4009C44.1947 13.2774 42.3935 14.4042 39.9088 15.4418C37.422 16.3357 35.126 17.1933 31.4108 17.2493C31.1753 17.186 30.9737 17.0334 30.8488 16.8239C30.724 16.6144 30.6857 16.3645 30.742 16.1273C30.7984 15.89 30.945 15.684 31.1507 15.5531C31.3565 15.4221 31.6051 15.3765 31.844 15.4258C34.9072 15.3735 36.8995 14.8434 38.8864 13.957C40.8732 13.0707 42.9082 11.9133 44.9891 9.97419L48.1345 7.04315L42.4463 6.84379C42.3231 6.83945 42.2019 6.81088 42.0898 6.75972C41.9776 6.70856 41.8767 6.63581 41.7926 6.54563C41.7086 6.45544 41.6431 6.34959 41.6 6.23411C41.5569 6.11863 41.5369 5.99579 41.5413 5.87259C41.5456 5.7494 41.5742 5.62827 41.6253 5.51612C41.6765 5.40397 41.7492 5.30299 41.8394 5.21895C41.9296 5.13491 42.0355 5.06946 42.1509 5.02633C42.2664 4.98321 42.3893 4.96324 42.5125 4.96759L50.4625 5.24807C50.5857 5.25227 50.7069 5.28073 50.8191 5.33184C50.9314 5.38295 51.0324 5.45569 51.1165 5.54591C51.2005 5.63612 51.266 5.74204 51.309 5.85759C51.3521 5.97313 51.372 6.09604 51.3675 6.21927L51.087 14.1693C51.0828 14.2925 51.0543 14.4137 51.0032 14.5259C50.9521 14.6382 50.8794 14.7392 50.7891 14.8233C50.6989 14.9073 50.593 14.9728 50.4775 15.0159C50.3619 15.0589 50.239 15.0788 50.1158 15.0743Z" fill="#EAC28C"/>
</svg>
