<svg width="61" height="27" viewBox="0 0 61 27" fill="none" xmlns="http://www.w3.org/2000/svg">
<path d="M5.37113 14.55C5.49419 14.5579 5.61761 14.5415 5.73432 14.5017C5.85103 14.4619 5.95874 14.3995 6.05128 14.318C6.14383 14.2365 6.21938 14.1375 6.27362 14.0268C6.32786 13.916 6.35971 13.7957 6.36737 13.6726L6.7264 7.99217L9.62123 11.2792C11.4404 13.3448 13.1219 14.6435 15.4923 15.9207C17.879 17.0551 20.0795 18.1346 23.771 18.5561C24.0117 18.5163 24.2273 18.3843 24.3722 18.1882C24.5171 17.992 24.5798 17.7471 24.5471 17.5054C24.5144 17.2637 24.3887 17.0443 24.1969 16.8937C24.005 16.7432 23.7621 16.6733 23.5196 16.6989C20.4763 16.3452 18.5459 15.6215 16.656 14.5438C14.7661 13.4661 12.855 12.114 10.975 9.97944L8.13351 6.75295L13.8138 7.11463C13.9368 7.12244 14.0601 7.10593 14.1768 7.06606C14.2934 7.0262 14.4011 6.96374 14.4936 6.88227C14.5861 6.8008 14.6617 6.70191 14.716 6.59123C14.7702 6.48056 14.8022 6.36028 14.81 6.23726C14.8178 6.11424 14.8013 5.99088 14.7614 5.87424C14.7216 5.75759 14.6591 5.64994 14.5776 5.55744C14.4962 5.46493 14.3973 5.38937 14.2866 5.33508C14.1759 5.28079 14.0557 5.24883 13.9326 5.24103L5.99364 4.73738C5.87058 4.72942 5.74717 4.74581 5.63045 4.78562C5.51374 4.82543 5.40603 4.88787 5.31349 4.96937C5.22095 5.05087 5.14539 5.14983 5.09116 5.26058C5.03692 5.37132 5.00506 5.49168 4.99741 5.61475L4.49376 13.5537C4.4858 13.6768 4.50219 13.8002 4.542 13.9169C4.58181 14.0336 4.64425 14.1414 4.72575 14.2339C4.80725 14.3264 4.90621 14.402 5.01696 14.4562C5.1277 14.5105 5.24806 14.5423 5.37113 14.55Z" fill="#EAC28C"/>
<path d="M55.2792 14.2349C55.1563 14.2448 55.0326 14.2303 54.9153 14.1924C54.798 14.1544 54.6893 14.0937 54.5955 14.0137C54.5016 13.9336 54.4245 13.8359 54.3685 13.726C54.3125 13.6162 54.2788 13.4963 54.2692 13.3734L53.8202 7.69935L50.9778 11.0318C49.1916 13.126 47.5309 14.4513 45.181 15.7658C42.8126 16.9379 40.6295 18.0522 36.9451 18.5321C36.7039 18.4962 36.4862 18.3676 36.3382 18.1738C36.1902 17.9799 36.1236 17.736 36.1525 17.4938C36.1814 17.2517 36.3035 17.0303 36.493 16.8767C36.6824 16.7231 36.9242 16.6494 37.1671 16.6712C40.2044 16.2693 42.123 15.5151 43.9957 14.4076C45.8683 13.3001 47.7577 11.9178 49.6035 9.75371L52.3936 6.48259L46.7198 6.93425C46.5969 6.94401 46.4733 6.92946 46.356 6.89145C46.2388 6.85343 46.1301 6.7927 46.0364 6.7127C45.9426 6.63271 45.8654 6.53502 45.8094 6.42522C45.7534 6.31543 45.7195 6.19567 45.7098 6.07278C45.7 5.9499 45.7146 5.8263 45.7526 5.70904C45.7906 5.59178 45.8513 5.48315 45.9313 5.38936C46.0113 5.29557 46.109 5.21846 46.2188 5.16242C46.3286 5.10639 46.4483 5.07252 46.5712 5.06277L54.5012 4.43336C54.6242 4.42344 54.7478 4.43788 54.8651 4.47583C54.9825 4.51379 55.0912 4.57451 55.185 4.65454C55.2788 4.73456 55.3559 4.83231 55.4119 4.94218C55.4679 5.05205 55.5017 5.17189 55.5113 5.29483L56.1407 13.2248C56.1506 13.3478 56.1361 13.4714 56.0982 13.5887C56.0602 13.7061 55.9995 13.8148 55.9195 13.9086C55.8395 14.0024 55.7417 14.0795 55.6318 14.1355C55.522 14.1915 55.4021 14.2253 55.2792 14.2349Z" fill="#EAC28C"/>
</svg>
