<svg width="512" height="512" viewBox="0 0 512 512" fill="none" xmlns="http://www.w3.org/2000/svg">
<path d="M247.759 14.358L16 125.946V184H496V125.638L247.759 14.358ZM464 152H48V146.054L248.241 49.642L464 146.362V152Z" fill="white"/>
<path d="M48 408H464V440H48V408Z" fill="white"/>
<path d="M16 464H496V496H16V464Z" fill="white"/>
<path d="M56 216H88V376H56V216Z" fill="white"/>
<path d="M424 216H456V376H424V216Z" fill="white"/>
<path d="M328 216H360V376H328V216Z" fill="white"/>
<path d="M152 216H184V376H152V216Z" fill="white"/>
<path d="M240 216H272V376H240V216Z" fill="white"/>
</svg>
