<svg width="512" height="512" viewBox="0 0 512 512" fill="none" xmlns="http://www.w3.org/2000/svg">
<path d="M256 0C114.615 0 0 114.615 0 256C0 397.385 114.615 512 256 512C397.385 512 512 397.385 512 256C512 114.615 397.385 0 256 0ZM164 101.687C169.274 101.376 174.042 104.529 177.656 110.125L212.656 176.5C216.341 184.365 214.247 192.786 208.75 198.406L192.719 214.437C191.729 215.793 191.078 217.32 191.063 218.999C197.21 242.797 215.859 264.748 232.313 279.843C248.766 294.939 266.45 315.377 289.406 320.218C292.244 321.01 295.72 321.294 297.75 319.407L316.375 300.438C322.804 295.565 332.105 293.203 338.969 297.188H339.281L402.437 334.469C411.707 340.28 412.668 351.512 406.031 358.344L362.531 401.5C356.108 408.088 347.573 410.303 339.282 410.313C302.611 409.214 267.961 391.215 239.501 372.719C192.785 338.734 149.934 296.582 123.031 245.656C112.714 224.302 100.593 197.055 101.75 173.219C101.853 164.253 104.279 155.468 110.594 149.688L154.094 106.188C157.483 103.305 160.835 101.874 164 101.687V101.687Z" fill="white"/>
</svg>
