<svg width="512" height="512" viewBox="0 0 512 512" fill="none" xmlns="http://www.w3.org/2000/svg">
<path d="M256 56C220.986 56.0092 186.587 65.2083 156.242 82.6779C125.896 100.147 100.668 125.276 83.0775 155.551C65.4871 185.826 56.151 220.188 56.0023 255.202C55.8536 290.216 64.8974 324.656 82.23 355.08L64.22 418.112C63.0446 422.227 62.991 426.582 64.0648 430.725C65.1386 434.868 67.3008 438.648 70.3272 441.674C73.3536 444.701 77.1341 446.862 81.2771 447.936C85.4201 449.01 89.7748 448.956 93.89 447.78L156.924 429.772C183.536 444.944 213.278 453.801 243.854 455.66C274.431 457.518 305.026 452.328 333.28 440.491C361.534 428.653 386.691 410.484 406.811 387.384C426.931 364.285 441.477 336.873 449.326 307.262C457.174 277.651 458.117 246.633 452.081 216.601C446.044 186.568 433.19 158.323 414.51 134.045C395.83 109.766 371.822 90.1028 344.34 76.5713C316.857 63.0398 286.633 56.0018 256 56ZM256 440C222.954 440.022 190.514 431.132 162.096 414.266C161.159 413.708 160.118 413.348 159.036 413.208C157.955 413.067 156.856 413.15 155.808 413.45L89.494 432.396C88.1223 432.787 86.6709 432.805 85.2902 432.447C83.9094 432.089 82.6495 431.368 81.6409 430.359C80.6324 429.351 79.9119 428.091 79.5541 426.71C79.1963 425.329 79.2142 423.878 79.606 422.506L98.55 356.194C98.8496 355.146 98.9317 354.047 98.7914 352.966C98.6511 351.884 98.2912 350.843 97.734 349.906C77.0096 314.99 68.415 274.2 73.2889 233.891C78.1628 193.581 96.2317 156.015 124.681 127.045C153.13 98.0746 190.361 79.3267 230.576 73.7217C270.79 68.1168 311.729 75.9695 347.016 96.0565C382.302 116.144 409.955 147.337 425.665 184.778C441.376 222.218 444.262 263.804 433.875 303.056C423.488 342.308 400.41 377.023 368.238 401.792C336.065 426.562 296.603 439.995 256 440ZM357.024 293.086L316.104 269.704C312.402 267.591 308.204 266.501 303.942 266.547C299.68 266.592 295.506 267.771 291.85 269.962L264.236 286.53C247.52 278.06 233.941 264.48 225.472 247.764L242.04 220.15C244.231 216.494 245.409 212.32 245.454 208.058C245.499 203.795 244.409 199.598 242.296 195.896L218.916 154.976C217.007 151.645 214.253 148.876 210.931 146.949C207.61 145.022 203.84 144.005 200 144C183.069 144.004 166.829 150.715 154.834 162.665C142.84 174.614 136.068 190.829 136 207.76C135.969 229.842 140.291 251.714 148.72 272.124C157.148 292.534 169.518 311.082 185.121 326.708C200.724 342.333 219.255 354.73 239.653 363.188C260.051 371.646 281.916 375.999 303.998 376H304.238C321.169 375.933 337.384 369.161 349.334 357.166C361.284 345.172 367.996 328.931 368 312C367.996 308.161 366.979 304.39 365.052 301.069C363.125 297.748 360.355 294.995 357.024 293.086ZM304.216 360H304C284.021 360 264.238 356.061 245.783 348.409C227.327 340.757 210.561 329.542 196.444 315.405C182.327 301.267 171.135 284.486 163.509 266.02C155.883 247.553 151.972 227.765 152 207.786C152.055 195.092 157.137 182.937 166.133 173.981C175.129 165.026 187.306 159.998 200 160C201.02 160.001 202.021 160.271 202.903 160.783C203.785 161.294 204.517 162.03 205.024 162.914L228.404 203.836C229.108 205.07 229.472 206.469 229.457 207.889C229.442 209.31 229.05 210.701 228.32 211.92L209.54 243.216C208.876 244.322 208.489 245.573 208.413 246.861C208.338 248.15 208.574 249.437 209.104 250.614C219.546 273.853 238.149 292.455 261.388 302.896C262.565 303.426 263.852 303.663 265.141 303.587C266.429 303.511 267.68 303.124 268.786 302.46L300.08 283.68C301.299 282.95 302.69 282.557 304.111 282.542C305.532 282.527 306.932 282.89 308.166 283.594L349.086 306.978C349.971 307.485 350.706 308.216 351.217 309.098C351.729 309.979 351.999 310.981 352 312C352.002 324.694 346.975 336.871 338.019 345.867C329.064 354.863 316.909 359.944 304.216 360Z" fill="white"/>
</svg>
