<svg width="30" height="28" viewBox="0 0 30 28" fill="none" xmlns="http://www.w3.org/2000/svg">
<path d="M29.012 10.8837C28.9952 10.886 28.9788 10.8892 28.9616 10.8909C28.9239 10.8947 28.886 10.8967 28.848 10.8967H21.936C21.6305 10.8967 21.3375 10.7753 21.1214 10.5593C20.9054 10.3432 20.784 10.0502 20.784 9.74468C20.784 9.43915 20.9054 9.14614 21.1214 8.9301C21.3375 8.71405 21.6305 8.59268 21.936 8.59268H26.0668L23.1458 5.6718C20.9837 3.51453 18.0542 2.303 15 2.303C11.9458 2.303 9.01628 3.51453 6.85423 5.6718C6.63817 5.88786 6.34512 6.00925 6.03956 6.00925C5.73399 6.00925 5.44094 5.88786 5.22488 5.6718C5.00881 5.45573 4.88743 5.16268 4.88743 4.85712C4.88743 4.55156 5.00881 4.25851 5.22488 4.04244C7.81946 1.45379 11.3349 0 15 0C18.6651 0 22.1805 1.45379 24.7751 4.04244L27.696 6.96333V2.8327C27.696 2.52717 27.8174 2.23416 28.0334 2.01812C28.2495 1.80208 28.5425 1.68071 28.848 1.68071C29.1535 1.68071 29.4465 1.80208 29.6626 2.01812C29.8786 2.23416 30 2.52717 30 2.8327V9.74382C30 9.78212 29.998 9.82042 29.9942 9.85858C29.9928 9.87399 29.9898 9.88897 29.9876 9.90423C29.9846 9.92626 29.9819 9.94829 29.9775 9.97004C29.9741 9.98804 29.969 10.0055 29.9646 10.0233C29.96 10.042 29.9559 10.0608 29.9502 10.0795C29.9448 10.0968 29.9384 10.1136 29.9323 10.1306C29.9257 10.149 29.9196 10.1676 29.9122 10.1859C29.9055 10.2014 29.8979 10.2163 29.8908 10.2315C29.8821 10.2506 29.8736 10.2696 29.8635 10.2881C29.856 10.3021 29.8475 10.3155 29.8394 10.329C29.8284 10.3478 29.8178 10.3666 29.8055 10.3849C29.796 10.399 29.7853 10.4123 29.7752 10.4261C29.763 10.4426 29.7515 10.4593 29.7384 10.4753C29.7216 10.4956 29.7035 10.5148 29.6855 10.5339C29.6776 10.5421 29.6708 10.5511 29.6626 10.5591C29.6548 10.5669 29.6463 10.5735 29.6383 10.5812C29.6188 10.5995 29.5994 10.6179 29.5787 10.6349C29.5634 10.6476 29.5473 10.6586 29.5314 10.6703C29.517 10.681 29.5031 10.6922 29.4882 10.7021C29.4705 10.7139 29.4524 10.7242 29.4344 10.7348C29.42 10.7433 29.4061 10.7522 29.3915 10.7602C29.3735 10.7698 29.3552 10.7779 29.3369 10.7865C29.321 10.794 29.3053 10.8019 29.2891 10.8087C29.2716 10.8159 29.2538 10.8217 29.2361 10.828C29.2184 10.8345 29.2008 10.8412 29.1825 10.8467C29.1651 10.852 29.1472 10.8559 29.1295 10.8604C29.1108 10.8651 29.0922 10.8705 29.0731 10.8742C29.0529 10.8782 29.0325 10.8805 29.012 10.8836V10.8837ZM23.1458 21.9633C20.9837 24.1206 18.0542 25.3321 15 25.3321C11.9458 25.3321 9.01628 24.1206 6.85423 21.9633L3.9332 19.0424H8.06397C8.3695 19.0424 8.66252 18.9211 8.87856 18.705C9.0946 18.489 9.21597 18.196 9.21597 17.8904C9.21597 17.5849 9.0946 17.2919 8.87856 17.0759C8.66252 16.8598 8.3695 16.7384 8.06397 16.7384H1.152C1.14336 16.7384 1.13515 16.7396 1.12651 16.7399C1.09728 16.7405 1.06819 16.7413 1.0391 16.7442C1.01923 16.7461 0.999789 16.7497 0.980205 16.7527C0.962637 16.7553 0.944925 16.7573 0.927501 16.7608C0.906621 16.7648 0.886317 16.7706 0.865869 16.7757C0.850029 16.7798 0.833901 16.7832 0.818061 16.788C0.798621 16.7939 0.779757 16.8012 0.760605 16.8081C0.74419 16.8141 0.72763 16.8194 0.711358 16.8261C0.694078 16.8333 0.677662 16.8417 0.660958 16.8496C0.643534 16.8578 0.625966 16.8655 0.608974 16.8747C0.593566 16.8829 0.579022 16.8922 0.56419 16.901C0.546622 16.9114 0.529054 16.9213 0.512062 16.9327C0.496654 16.9429 0.482398 16.9543 0.46771 16.9654C0.452158 16.9769 0.436319 16.9876 0.421343 17C0.400463 17.0172 0.380879 17.0357 0.361295 17.0542C0.353375 17.0616 0.345023 17.0682 0.337391 17.0758C0.329183 17.0839 0.322415 17.0928 0.314495 17.101C0.296495 17.1202 0.278351 17.1393 0.261647 17.1596C0.248543 17.1755 0.237023 17.1923 0.224927 17.2089C0.214847 17.2226 0.204047 17.236 0.194543 17.2501C0.182303 17.2684 0.171503 17.2872 0.160559 17.306C0.152495 17.3196 0.144 17.3329 0.136512 17.3468C0.126432 17.3654 0.11808 17.3844 0.109152 17.4034C0.101952 17.4187 0.0944637 17.4337 0.0879837 17.4491C0.0804957 17.4672 0.0743039 17.486 0.0678239 17.5044C0.0616319 17.5214 0.0551519 17.5382 0.0498239 17.5555C0.044208 17.5742 0.0400319 17.5929 0.0354239 17.6117C0.0311039 17.6295 0.0259199 17.6469 0.0224639 17.6649C0.018144 17.6867 0.015408 17.7087 0.012384 17.7308C0.010224 17.746 0.00734383 17.761 0.00575984 17.7764C0.00201585 17.8146 0 17.8529 0 17.8912V24.8024C0 25.108 0.121371 25.401 0.337412 25.617C0.553453 25.833 0.846468 25.9544 1.152 25.9544C1.45752 25.9544 1.75054 25.833 1.96658 25.617C2.18262 25.401 2.30399 25.108 2.30399 24.8024V20.6719L5.22488 23.5928C7.81946 26.1815 11.3349 27.6353 15 27.6353C18.6651 27.6353 22.1805 26.1815 24.7751 23.5928C24.9912 23.3768 25.1126 23.0837 25.1126 22.7782C25.1126 22.4726 24.9912 22.1795 24.7751 21.9635C24.5591 21.7474 24.266 21.626 23.9604 21.626C23.6549 21.626 23.3618 21.7474 23.1458 21.9635V21.9633Z" fill="#EAC28C"/>
</svg>
