<svg width="512" height="512" viewBox="0 0 512 512" fill="none" xmlns="http://www.w3.org/2000/svg">
<path d="M359.994 130.292H200.225C190.33 130.292 190.33 145.302 200.225 145.302H359.993C370.019 145.303 370.02 130.292 359.994 130.292V130.292ZM165.302 130.292H139.995C129.935 130.292 129.935 145.302 139.995 145.302H165.302C175.272 145.302 175.272 130.292 165.302 130.292ZM218.497 360.344H139.995C129.937 360.344 129.937 375.354 139.995 375.354H218.497C228.59 375.354 228.59 360.344 218.497 360.344ZM249.995 283.661H139.995C130.195 283.661 130.195 298.671 139.995 298.671H249.995C259.99 298.671 259.99 283.661 249.995 283.661ZM303.54 206.975H139.995C129.871 206.975 129.871 221.985 139.995 221.985H303.54C313.678 221.985 313.678 206.975 303.54 206.975ZM395.752 105.85V169.945C395.752 179.978 410.762 179.978 410.762 169.945V113.355H487.968C492.846 113.218 495.626 109.261 495.473 105.776C495.177 75.976 473.761 53.504 445.578 53.504H135.398C107.923 53.504 85.572 75.856 85.572 103.331V398.645H7.504C3.334 398.76 0.106 401.927 0 406.224C0.296 436.024 21.712 458.496 49.815 458.496H360.939C388.414 458.496 410.766 436.144 410.766 408.669V317.723C410.766 307.749 395.754 307.75 395.754 317.724V408.67C393.728 454.426 326.73 456.375 325.19 406.076C325.17 404.098 324.371 402.209 322.966 400.817C321.56 399.426 319.663 398.645 317.685 398.645H100.586V103.33C100.586 84.132 116.205 68.514 135.401 68.514H409.968C400.6 78.304 395.387 90.804 395.752 105.85ZM324.612 443.486H49.813C32.588 443.486 18.957 431.101 15.731 413.656H310.701C312.521 425.74 317.094 435.731 324.611 443.486H324.612ZM269.297 368.982C267.177 379.173 280.807 382.336 283.747 373.049L295.511 331.265C344.459 309.195 362.506 320.823 423.357 276.777C447.051 259.627 474.654 234.053 509.29 197.677C514.614 192.945 511.57 184.768 504.704 184.387C441.904 182.762 360.015 197.879 318.615 245.141C297.31 268.814 284.559 312.533 269.297 368.981V368.982ZM439.37 203.869C394.23 226.029 351.01 255.456 308.72 291.8C324.033 246.5 365.44 216.258 439.37 203.87V203.869ZM312.834 308.465C364.597 262.848 421.27 224.212 479.57 203.669C454.198 228.917 432.198 251.789 409.577 267.891C366.972 298.217 342.785 298.403 312.834 308.465ZM479.747 98.343H411.133C417.81 59.047 472.51 58.14 479.747 98.343V98.343Z" fill="white"/>
</svg>
