<svg width="512" height="512" viewBox="0 0 512 512" fill="none" xmlns="http://www.w3.org/2000/svg">
<path d="M256 0C188.105 0 122.99 26.9714 74.9807 74.9807C26.9714 122.99 0 188.105 0 256C0 323.895 26.9714 389.01 74.9807 437.019C122.99 485.029 188.105 512 256 512C323.895 512 389.01 485.029 437.019 437.019C485.029 389.01 512 323.895 512 256C512 188.105 485.029 122.99 437.019 74.9807C389.01 26.9714 323.895 0 256 0V0ZM128 128H384C388.576 128 392.992 128.992 397.088 130.816L256 295.392L114.912 130.816C119.022 128.948 123.486 127.988 128 128ZM96 352V160L96.064 157.984L189.888 267.456L97.088 360.256C96.355 357.566 95.989 354.788 96 352V352ZM384 384H128C125.184 384 122.4 383.616 119.744 382.912L210.816 291.84L256.032 344.576L301.248 291.84L392.32 382.912C389.63 383.645 386.852 384.011 384.064 384H384ZM416 352C416 354.816 415.616 357.6 414.912 360.256L322.112 267.456L415.936 157.984L416 160V352Z" fill="white"/>
</svg>
