<svg width="300" height="300" viewBox="0 0 300 300" fill="none" xmlns="http://www.w3.org/2000/svg">
<path fill-rule="evenodd" clip-rule="evenodd" d="M139.504 63L144.504 58H154.004C153.004 58 158.504 63.5 158.504 63.5V145L153.004 149.5H144.504L139.504 145V63Z" fill="white"/>
<path fill-rule="evenodd" clip-rule="evenodd" d="M111.391 81.047C111.391 81.047 110.915 85.839 109.961 87.277C88.988 100.697 76.594 122.743 75.641 150.541C77.071 191.759 109.961 224.829 150.478 224.829C190.996 224.829 223.886 191.759 223.41 149.583C223.886 123.702 210.063 100.697 190.519 87.277C189.089 84.402 188.136 81.526 188.136 81.526L193.379 73.378C193.379 73.378 195.286 71.461 198.622 71.94C224.84 89.194 242 117.95 242 150.541C242 201.345 200.53 242.562 150.002 242.562C99.474 242.562 57.527 201.345 58.004 150.542C58.004 117.472 75.641 88.715 100.904 70.982C103.764 69.065 106.624 74.337 106.624 74.337L111.391 81.047V81.047Z" fill="white"/>
<circle cx="150" cy="150" r="142" stroke="white" stroke-width="16"/>
</svg>
